<svg width="58" height="58" viewBox="0 0 58 58" fill="none" xmlns="http://www.w3.org/2000/svg">
<rect x="3.35634" y="1.88244" width="53" height="53" rx="17.5" transform="rotate(1.79593 3.35634 1.88244)" fill="#F24E1E" stroke="black" stroke-width="3"/>
<path d="M27.7421 17.7054C30.7903 17.6235 33.7467 18.7539 35.9626 20.8486C38.04 22.8124 39.308 25.4734 39.5321 28.3098L39.5628 28.8795C39.6263 31.1524 39.0142 33.3928 37.8046 35.3182C36.5946 37.2441 34.8406 38.7688 32.7645 39.6979C30.6888 40.6268 28.3841 40.9194 26.142 40.5387C23.8996 40.1578 21.8201 39.1204 20.1672 37.558C18.5143 35.9955 17.3617 33.9775 16.8555 31.7601C16.3494 29.543 16.512 27.2255 17.3228 25.1008C18.1338 22.9758 19.5575 21.1389 21.4124 19.8226C23.2667 18.5067 25.4692 17.7697 27.7421 17.7054Z" fill="white" stroke="black" stroke-width="3"/>
</svg>
