<svg width="800" height="600" viewBox="0 0 800 600" fill="none" xmlns="http://www.w3.org/2000/svg">
<mask id="mask0_450_12572" style="mask-type:luminance" maskUnits="userSpaceOnUse" x="0" y="0" width="800" height="600">
<path d="M800 0H0V600H800V0Z" fill="white"/>
</mask>
<g mask="url(#mask0_450_12572)">
<path d="M800 0H0V600H800V0Z" fill="#E950BE"/>
<mask id="mask1_450_12572" style="mask-type:alpha" maskUnits="userSpaceOnUse" x="-134" y="-1" width="1068" height="601">
<path d="M933.63 -0.000244141H-134V600H933.63V-0.000244141Z" fill="url(#paint0_radial_450_12572)"/>
</mask>
<g mask="url(#mask1_450_12572)">
<g style="mix-blend-mode:overlay" opacity="0.6">
<path d="M-8.53516 -38.7085L7.10816 690.302" stroke="white" stroke-width="2.47423"/>
<path d="M34.4414 -38.3508L70.3177 689.944" stroke="white" stroke-width="2.47423"/>
<path d="M92.3701 -38.6423L113.3 690.235" stroke="white" stroke-width="2.47423"/>
<path d="M167.04 -38.7866L171.194 690.38" stroke="white" stroke-width="2.47423"/>
<path d="M221.238 -38.5845L245.868 690.178" stroke="white" stroke-width="2.47423"/>
<path d="M284.442 -38.7085L300.086 690.302" stroke="white" stroke-width="2.47423"/>
<path d="M347.639 -38.7085L363.282 690.302" stroke="white" stroke-width="2.47423"/>
<path d="M390.613 -38.3508L426.49 689.944" stroke="white" stroke-width="2.47423"/>
<path d="M448.543 -38.6423L469.473 690.235" stroke="white" stroke-width="2.47423"/>
<path d="M523.214 -38.7866L527.368 690.38" stroke="white" stroke-width="2.47423"/>
<path d="M577.412 -38.5845L602.041 690.178" stroke="white" stroke-width="2.47423"/>
<path d="M640.616 -38.7085L656.26 690.302" stroke="white" stroke-width="2.47423"/>
<path d="M703.812 -38.7085L719.455 690.302" stroke="white" stroke-width="2.47423"/>
<path d="M746.787 -38.3508L782.663 689.944" stroke="white" stroke-width="2.47423"/>
<path d="M1991.71 30.3667L-389.812 0.114746" stroke="white" stroke-width="2.47423"/>
<path d="M1991.67 73.3425L-389.773 109.219" stroke="white" stroke-width="2.47423"/>
<path d="M1991.79 165.181L-389.892 152.201" stroke="white" stroke-width="2.47423"/>
<path d="M1991.32 311.781L-389.427 244.006" stroke="white" stroke-width="2.47423"/>
<path d="M1991.8 391.499L-389.908 390.609" stroke="white" stroke-width="2.47423"/>
<path d="M1991.71 500.599L-389.812 470.347" stroke="white" stroke-width="2.47423"/>
<path d="M1991.71 609.689L-389.812 579.437" stroke="white" stroke-width="2.47423"/>
</g>
</g>
</g>
<defs>
<radialGradient id="paint0_radial_450_12572" cx="0" cy="0" r="1" gradientUnits="userSpaceOnUse" gradientTransform="translate(375.314 300) rotate(180) scale(355.5 379.149)">
<stop stop-opacity="0"/>
<stop offset="0.572917" stop-opacity="0.161458"/>
<stop offset="1"/>
</radialGradient>
</defs>
</svg>
