<svg width="800" height="600" viewBox="0 0 800 600" fill="none" xmlns="http://www.w3.org/2000/svg">
<g clip-path="url(#clip0_523_12301)">
<rect width="800" height="600" fill="url(#paint0_linear_523_12301)"/>
<g opacity="0.3">
<mask id="mask0_523_12301" style="mask-type:alpha" maskUnits="userSpaceOnUse" x="-134" y="0" width="1068" height="600">
<rect x="-134" width="1067.63" height="600" fill="url(#paint1_radial_523_12301)"/>
</mask>
<g mask="url(#mask0_523_12301)">
<g opacity="0.6">
<path d="M-8.53516 -38.7083L7.10816 690.302" stroke="#C03FFF" stroke-width="2.47423"/>
<path d="M34.4414 -38.3506L70.3177 689.944" stroke="#C03FFF" stroke-width="2.47423"/>
<path d="M92.3701 -38.6421L113.3 690.235" stroke="#C03FFF" stroke-width="2.47423"/>
<path d="M167.04 -38.7864L171.194 690.38" stroke="#C03FFF" stroke-width="2.47423"/>
<path d="M221.239 -38.5842L245.869 690.178" stroke="#C03FFF" stroke-width="2.47423"/>
<path d="M284.443 -38.7083L300.087 690.302" stroke="#C03FFF" stroke-width="2.47423"/>
<path d="M347.639 -38.7083L363.282 690.302" stroke="#C03FFF" stroke-width="2.47423"/>
<path d="M390.614 -38.3506L426.491 689.944" stroke="#C03FFF" stroke-width="2.47423"/>
<path d="M448.543 -38.6421L469.473 690.235" stroke="#C03FFF" stroke-width="2.47423"/>
<path d="M523.214 -38.7864L527.368 690.38" stroke="#C03FFF" stroke-width="2.47423"/>
<path d="M577.412 -38.5842L602.041 690.178" stroke="#C03FFF" stroke-width="2.47423"/>
<path d="M640.616 -38.7083L656.26 690.302" stroke="#C03FFF" stroke-width="2.47423"/>
<path d="M703.812 -38.7083L719.455 690.302" stroke="#C03FFF" stroke-width="2.47423"/>
<path d="M746.787 -38.3506L782.663 689.944" stroke="#C03FFF" stroke-width="2.47423"/>
<path d="M804.716 -38.6421L825.646 690.235" stroke="#C03FFF" stroke-width="2.47423"/>
<path d="M1991.71 30.3669L-389.812 0.114952" stroke="#C03FFF" stroke-width="2.47423"/>
<path d="M1991.67 73.3428L-389.773 109.219" stroke="#C03FFF" stroke-width="2.47423"/>
<path d="M1991.79 165.181L-389.891 152.201" stroke="#C03FFF" stroke-width="2.47423"/>
<path d="M1991.32 311.781L-389.426 244.006" stroke="#C03FFF" stroke-width="2.47423"/>
<path d="M1991.8 391.499L-389.908 390.609" stroke="#C03FFF" stroke-width="2.47423"/>
<path d="M1991.71 500.599L-389.812 470.347" stroke="#C03FFF" stroke-width="2.47423"/>
<path d="M1991.71 609.689L-389.812 579.437" stroke="#C03FFF" stroke-width="2.47423"/>
</g>
</g>
</g>
</g>
<defs>
<linearGradient id="paint0_linear_523_12301" x1="400" y1="600" x2="400" y2="0" gradientUnits="userSpaceOnUse">
<stop stop-color="#A6BFFF"/>
<stop offset="1" stop-color="#F68084"/>
</linearGradient>
<radialGradient id="paint1_radial_523_12301" cx="0" cy="0" r="1" gradientUnits="userSpaceOnUse" gradientTransform="translate(375.314 300) rotate(180) scale(355.5 379.149)">
<stop stop-opacity="0"/>
<stop offset="0.572917" stop-opacity="0.161458"/>
<stop offset="1"/>
</radialGradient>
<clipPath id="clip0_523_12301">
<rect width="800" height="600" fill="white"/>
</clipPath>
</defs>
</svg>
