<svg width="58" height="58" viewBox="0 0 58 58" fill="none" xmlns="http://www.w3.org/2000/svg">
<rect x="3.35536" y="1.88244" width="53" height="53" rx="17.5" transform="rotate(1.79593 3.35536 1.88244)" fill="#009900" stroke="black" stroke-width="3"/>
<g clip-path="url(#clip0_471_12301)">
<path d="M17.7757 19.0279L37.7678 18.4658C37.9004 18.4621 38.029 18.5112 38.1253 18.6023C38.2217 18.6934 38.278 18.819 38.2817 18.9515L38.8438 38.9436C38.8475 39.0762 38.7984 39.2048 38.7073 39.3011C38.6162 39.3975 38.4906 39.4538 38.3581 39.4575L18.366 40.0196C18.2334 40.0233 18.1048 39.9742 18.0085 39.8831C17.9121 39.792 17.8558 39.6664 17.8521 39.5339L17.29 19.5418C17.2863 19.4092 17.3354 19.2806 17.4265 19.1843C17.5176 19.0879 17.6432 19.0316 17.7757 19.0279Z" fill="white" stroke="black" stroke-width="3"/>
</g>
<defs>
<clipPath id="clip0_471_12301">
<rect width="24" height="24" fill="white" transform="translate(16.1885 17.5774) rotate(-1.61055)"/>
</clipPath>
</defs>
</svg>
