<svg width="58" height="58" viewBox="0 0 58 58" fill="none" xmlns="http://www.w3.org/2000/svg">
<rect x="3.35634" y="1.88244" width="53" height="53" rx="17.5" transform="rotate(1.79593 3.35634 1.88244)" fill="#FF9700" stroke="black" stroke-width="3"/>
<path d="M28.315 17.659C28.4229 17.656 28.5298 17.6856 28.6212 17.7432C28.7123 17.8008 28.7844 17.884 28.8282 17.9826L28.8292 17.9855L31.8654 24.7886L32.2397 25.627L33.1564 25.6745L40.5452 26.0617C40.6529 26.0688 40.7559 26.1078 40.8424 26.1725C40.9302 26.2383 40.9965 26.3286 41.0333 26.4319C41.07 26.5351 41.0756 26.6466 41.0492 26.7529C41.0227 26.8593 40.9659 26.9561 40.8851 27.0301L36.938 30.6366L36.9419 30.6355L35.4065 32.0386L34.734 32.6524L34.9678 33.532L36.885 40.7387L36.8861 40.7446C36.9144 40.8495 36.9112 40.9603 36.8765 41.0633C36.8418 41.1663 36.7775 41.2571 36.6914 41.3235C36.6053 41.3899 36.5011 41.429 36.3927 41.4364C36.2858 41.4437 36.1792 41.4194 36.0859 41.3669L29.6667 37.6611L28.8673 37.2L28.0951 37.7053L21.8971 41.762C21.806 41.8208 21.6993 41.8512 21.5908 41.8497C21.4824 41.8482 21.3766 41.815 21.2872 41.7537C21.1978 41.6923 21.1282 41.6059 21.0878 41.5053C21.0575 41.4298 21.0451 41.3485 21.0499 41.268L21.0603 41.1876L21.0612 41.1856L22.5762 33.8814L22.7612 32.9891L22.0553 32.414L16.2961 27.7195C16.2117 27.6503 16.149 27.5582 16.1167 27.4539C16.0843 27.3494 16.0838 27.2376 16.1145 27.1326C16.1452 27.0274 16.2059 26.9336 16.2896 26.8629C16.3728 26.7926 16.4749 26.7484 16.583 26.7354L23.9296 25.9339L24.8422 25.835L25.1688 24.9768L27.8189 18.0148L27.8198 18.0109C27.858 17.9099 27.926 17.8229 28.014 17.7602C28.102 17.6975 28.2069 17.662 28.315 17.659Z" fill="white" stroke="black" stroke-width="3"/>
</svg>
