<svg width="800" height="600" viewBox="0 0 800 600" fill="none" xmlns="http://www.w3.org/2000/svg">
<g clip-path="url(#clip0_434_12300)">
<rect width="800" height="600" fill="#FFCB0C"/>
<g style="mix-blend-mode:overlay" opacity="0.4">
<path d="M653.136 44.9868C657.171 36.8111 668.829 36.8111 672.864 44.9869L679.544 58.5211C681.146 61.7677 684.243 64.0179 687.826 64.5385L702.762 66.7089C711.784 68.0199 715.387 79.1076 708.858 85.4715L698.05 96.0064C695.458 98.5335 694.275 102.175 694.887 105.743L697.438 120.618C698.98 129.604 689.548 136.457 681.478 132.214L668.119 125.191C664.914 123.506 661.086 123.506 657.881 125.191L644.522 132.214C636.452 136.457 627.02 129.604 628.562 120.618L631.113 105.743C631.725 102.175 630.542 98.5335 627.95 96.0064L617.142 85.4715C610.613 79.1076 614.216 68.0199 623.238 66.7089L638.174 64.5385C641.757 64.0179 644.854 61.7677 646.456 58.5211L653.136 44.9868Z" fill="white"/>
</g>
<g style="mix-blend-mode:overlay" opacity="0.4">
<path d="M444.136 464.987C448.171 456.811 459.829 456.811 463.864 464.987L470.544 478.521C472.146 481.768 475.243 484.018 478.826 484.539L493.762 486.709C502.784 488.02 506.387 499.108 499.858 505.471L489.05 516.006C486.458 518.534 485.275 522.175 485.887 525.743L488.438 540.618C489.98 549.604 480.548 556.457 472.478 552.214L459.119 545.191C455.914 543.506 452.086 543.506 448.881 545.191L435.522 552.214C427.452 556.457 418.02 549.604 419.562 540.618L422.113 525.743C422.725 522.175 421.542 518.534 418.95 516.006L408.142 505.471C401.613 499.108 405.216 488.02 414.238 486.709L429.174 484.539C432.757 484.018 435.854 481.768 437.456 478.521L444.136 464.987Z" fill="white"/>
</g>
<g style="mix-blend-mode:overlay" opacity="0.4">
<path d="M127.19 174.982C132.839 163.536 149.161 163.536 154.81 174.982L164.161 193.93C166.404 198.475 170.74 201.625 175.756 202.354L196.667 205.392C209.298 207.228 214.342 222.751 205.202 231.66L190.071 246.409C186.441 249.947 184.785 255.044 185.642 260.04L189.214 280.866C191.371 293.446 178.167 303.04 166.869 297.1L148.166 287.268C143.68 284.909 138.32 284.909 133.834 287.268L115.131 297.1C103.833 303.04 90.6287 293.446 92.7864 280.866L96.3583 260.04C97.2151 255.044 95.5589 249.947 91.9293 246.409L76.7985 231.66C67.6583 222.751 72.702 207.228 85.3334 205.392L106.244 202.354C111.26 201.625 115.596 198.475 117.839 193.93L127.19 174.982Z" fill="white"/>
</g>
<g style="mix-blend-mode:overlay" opacity="0.4">
<path d="M284.19 -32.0184C289.839 -43.4644 306.161 -43.4644 311.81 -32.0184L321.161 -13.0705C323.404 -8.52528 327.74 -5.3749 332.756 -4.64604L353.667 -1.6076C366.298 0.227847 371.342 15.7506 362.202 24.6601L347.071 39.409C343.441 42.9469 341.785 48.0443 342.642 53.04L346.214 73.8658C348.371 86.4462 335.167 96.0398 323.869 90.1001L305.166 80.2675C300.68 77.9089 295.32 77.9089 290.834 80.2675L272.131 90.1001C260.833 96.0398 247.629 86.4462 249.786 73.8658L253.358 53.04C254.215 48.0443 252.559 42.9469 248.929 39.409L233.798 24.6601C224.658 15.7506 229.702 0.227849 242.333 -1.6076L263.244 -4.64604C268.26 -5.3749 272.596 -8.52527 274.839 -13.0705L284.19 -32.0184Z" fill="white"/>
</g>
<g style="mix-blend-mode:overlay" opacity="0.4">
<path d="M755.19 335.982C760.839 324.536 777.161 324.536 782.81 335.982L792.161 354.93C794.404 359.475 798.74 362.625 803.756 363.354L824.667 366.392C837.298 368.228 842.342 383.751 833.202 392.66L818.071 407.409C814.441 410.947 812.785 416.044 813.642 421.04L817.214 441.866C819.371 454.446 806.167 464.04 794.869 458.1L776.166 448.268C771.68 445.909 766.32 445.909 761.834 448.268L743.131 458.1C731.833 464.04 718.629 454.446 720.786 441.866L724.358 421.04C725.215 416.044 723.559 410.947 719.929 407.409L704.798 392.66C695.658 383.751 700.702 368.228 713.333 366.392L734.244 363.354C739.26 362.625 743.596 359.475 745.839 354.93L755.19 335.982Z" fill="white"/>
</g>
<mask id="mask0_434_12300" style="mask-type:alpha" maskUnits="userSpaceOnUse" x="-134" y="0" width="1068" height="600">
<rect x="-133.814" width="1067.63" height="600" fill="url(#paint0_radial_434_12300)"/>
</mask>
<g mask="url(#mask0_434_12300)">
<g style="mix-blend-mode:overlay" opacity="0.6">
<path d="M-8.34961 -38.7083L7.29371 690.302" stroke="white" stroke-width="2.47423"/>
<path d="M34.627 -38.3506L70.5032 689.944" stroke="white" stroke-width="2.47423"/>
<path d="M92.5557 -38.6421L113.485 690.235" stroke="white" stroke-width="2.47423"/>
<path d="M167.226 -38.7864L171.379 690.38" stroke="white" stroke-width="2.47423"/>
<path d="M221.425 -38.5842L246.054 690.178" stroke="white" stroke-width="2.47423"/>
<path d="M284.629 -38.7083L300.272 690.302" stroke="white" stroke-width="2.47423"/>
<path d="M347.824 -38.7083L363.468 690.302" stroke="white" stroke-width="2.47423"/>
<path d="M390.8 -38.3506L426.676 689.944" stroke="white" stroke-width="2.47423"/>
<path d="M448.729 -38.6421L469.658 690.235" stroke="white" stroke-width="2.47423"/>
<path d="M523.399 -38.7864L527.553 690.38" stroke="white" stroke-width="2.47423"/>
<path d="M577.598 -38.5842L602.227 690.178" stroke="white" stroke-width="2.47423"/>
<path d="M640.802 -38.7083L656.445 690.302" stroke="white" stroke-width="2.47423"/>
<path d="M703.997 -38.7083L719.64 690.302" stroke="white" stroke-width="2.47423"/>
<path d="M746.973 -38.3506L782.849 689.944" stroke="white" stroke-width="2.47423"/>
<path d="M804.901 -38.6421L825.831 690.235" stroke="white" stroke-width="2.47423"/>
<path d="M1991.89 30.3669L-389.627 0.114952" stroke="white" stroke-width="2.47423"/>
<path d="M1991.86 73.3428L-389.588 109.219" stroke="white" stroke-width="2.47423"/>
<path d="M1991.97 165.181L-389.705 152.201" stroke="white" stroke-width="2.47423"/>
<path d="M1991.51 311.781L-389.24 244.006" stroke="white" stroke-width="2.47423"/>
<path d="M1991.99 391.499L-389.723 390.609" stroke="white" stroke-width="2.47423"/>
<path d="M1991.89 500.599L-389.627 470.347" stroke="white" stroke-width="2.47423"/>
<path d="M1991.89 609.689L-389.627 579.437" stroke="white" stroke-width="2.47423"/>
</g>
</g>
</g>
<defs>
<radialGradient id="paint0_radial_434_12300" cx="0" cy="0" r="1" gradientUnits="userSpaceOnUse" gradientTransform="translate(375.5 300) rotate(180) scale(355.5 379.149)">
<stop stop-opacity="0"/>
<stop offset="0.572917" stop-opacity="0.161458"/>
<stop offset="1"/>
</radialGradient>
<clipPath id="clip0_434_12300">
<rect width="800" height="600" fill="white"/>
</clipPath>
</defs>
</svg>
