<svg width="58" height="58" viewBox="0 0 58 58" fill="none" xmlns="http://www.w3.org/2000/svg">
<rect x="3.35634" y="1.88244" width="53" height="53" rx="17.5" transform="rotate(1.79593 3.35634 1.88244)" fill="#2819DB" stroke="black" stroke-width="3"/>
<path d="M27.7368 18.2507C28.0146 18.243 28.2895 18.3081 28.5344 18.4393C28.7794 18.5705 28.986 18.7633 29.1334 18.9989L40.5871 37.657L40.5912 37.6637C40.7259 37.8804 40.8009 38.1295 40.8079 38.3845C40.8148 38.6394 40.7537 38.8917 40.6311 39.1153L40.6264 39.1242C40.4966 39.365 40.3049 39.567 40.0714 39.7094C39.8377 39.8518 39.5697 39.9294 39.2961 39.9344L17.4132 40.5497C17.1398 40.56 16.8687 40.4976 16.6275 40.3686C16.3863 40.2396 16.1836 40.0487 16.0404 39.8155L16.0353 39.8079L15.9456 39.6394C15.8675 39.4664 15.8242 39.2791 15.8187 39.0881C15.8116 38.8331 15.8721 38.58 15.9945 38.3563L15.9992 38.3483L26.39 19.0653C26.5237 18.8267 26.7166 18.6265 26.9501 18.4839C27.1874 18.3391 27.459 18.2585 27.7368 18.2507Z" fill="white" stroke="black" stroke-width="3"/>
</svg>
